  0
SECTION
  2
HEADER
  9
$ANGBASE
  50
0.0
  9
$ANGDIR
  70
1
  9
$MEASUREMENT
  70
0
  0
ENDSEC
  0
SECTION
  2
TABLES
  0
TABLE
  2
LTYPE
  70
4
  0
LTYPE
  5
40F
  2
CONTINUOUS
  70
0
  3
Solid line
  72
65
  73
0
  40
0.0
  0
LTYPE
  5
410
  2
DASHDOT
 70
0
  3
Dash Dot ____ _ ____ _
 72
65
 73
4
 40
2.0
 49
1.25
 49
-0.25
 49
0.25
 49
-0.25
  0
LTYPE
  5
411
  2
DASHED
 70
0
  3
Dashed __ __ __ __ __
 72
65
 73
2
 40
0.75
 49
0.5
 49
-0.25
  0
LTYPE
  5
43B
  2
DOTTED
 70
0
  3
Dotted .  .  .  .
 72
65
 73
2
 40
0.2
 49
0.0
 49
-0.2
  0
ENDTAB
  0
TABLE
  2
STYLE
  70
4
  0
STYLE
  2
KICAD
  70
0
  40
0
  41
1
  42
1
  50
0
  71
0
  3
isocp.shx
  0
STYLE
  2
KICADB
  70
0
  40
0
  41
1
  42
1
  50
0
  71
0
  3
isocp.shx
  0
STYLE
  2
KICADI
  70
0
  40
0
  41
1
  42
1
  50
15
  71
0
  3
isocp.shx
  0
STYLE
  2
KICADBI
  70
0
  40
0
  41
1
  42
1
  50
15
  71
0
  3
isocp.shx
  0
ENDTAB
  0
TABLE
  2
LAYER
  70
1
  0
LAYER
  2
BLACK
  70
0
  62
7
  6
CONTINUOUS
  0
ENDTAB
  0
ENDSEC
  0
SECTION
  2
ENTITIES
0
LINE
8
BLACK
6
CONTINUOUS
10
1.3383381102362204
20
-3.6028576377952755
11
1.3383381102362204
21
-4.2721489763779523
0
LINE
8
BLACK
6
CONTINUOUS
10
1.3383381102362204
20
-4.2721489763779523
11
2.2241648818897639
21
-4.2721489763779523
0
LINE
8
BLACK
6
CONTINUOUS
10
2.2241648818897639
20
-3.6028576377952755
11
1.3383381102362204
21
-3.6028576377952755
0
LINE
8
BLACK
6
CONTINUOUS
10
2.2241648818897639
20
-4.2721489763779523
11
2.2241648818897639
21
-3.6028576377952755
0
LINE
8
BLACK
6
CONTINUOUS
10
3.5831692913385824
20
-0.6028543307086615
11
3.5831692913385824
21
-1.2721456692913387
0
LINE
8
BLACK
6
CONTINUOUS
10
3.5831692913385824
20
-1.2721456692913387
11
4.2918307086614176
21
-1.2721456692913387
0
LINE
8
BLACK
6
CONTINUOUS
10
4.2918307086614176
20
-0.6028543307086615
11
3.5831692913385824
21
-0.6028543307086615
0
LINE
8
BLACK
6
CONTINUOUS
10
4.2918307086614176
20
-1.2721456692913387
11
4.2918307086614176
21
-0.6028543307086615
0
LINE
8
BLACK
6
CONTINUOUS
10
3.723797716535433
20
-2.8528570078740159
11
3.723797716535433
21
-3.5221483464566927
0
LINE
8
BLACK
6
CONTINUOUS
10
3.723797716535433
20
-3.5221483464566927
11
4.4324591338582673
21
-3.5221483464566927
0
LINE
8
BLACK
6
CONTINUOUS
10
4.4324591338582673
20
-2.8528570078740159
11
3.723797716535433
21
-2.8528570078740159
0
LINE
8
BLACK
6
CONTINUOUS
10
4.4324591338582673
20
-3.5221483464566927
11
4.4324591338582673
21
-2.8528570078740159
0
LINE
8
BLACK
6
CONTINUOUS
10
5.2237989763779522
20
-2.8528570078740159
11
5.2237989763779522
21
-3.5221483464566927
0
LINE
8
BLACK
6
CONTINUOUS
10
5.2237989763779522
20
-3.5221483464566927
11
5.9324603937007874
21
-3.5221483464566927
0
LINE
8
BLACK
6
CONTINUOUS
10
5.9324603937007874
20
-2.8528570078740159
11
5.2237989763779522
21
-2.8528570078740159
0
LINE
8
BLACK
6
CONTINUOUS
10
5.9324603937007874
20
-3.5221483464566927
11
5.9324603937007874
21
-2.8528570078740159
0
LINE
8
BLACK
6
CONTINUOUS
10
3.2133396850393701
20
-3.6028576377952755
11
3.2133396850393701
21
-4.2721489763779523
0
LINE
8
BLACK
6
CONTINUOUS
10
3.2133396850393701
20
-4.2721489763779523
11
4.0991664566929131
21
-4.2721489763779523
0
LINE
8
BLACK
6
CONTINUOUS
10
4.0991664566929131
20
-3.6028576377952755
11
3.2133396850393701
21
-3.6028576377952755
0
LINE
8
BLACK
6
CONTINUOUS
10
4.0991664566929131
20
-4.2721489763779523
11
4.0991664566929131
21
-3.6028576377952755
0
LINE
8
BLACK
6
CONTINUOUS
10
9.3488024409448816
20
-2.1028563779527558
11
9.3488024409448816
21
-2.7721477165354331
0
LINE
8
BLACK
6
CONTINUOUS
10
9.3488024409448816
20
-2.7721477165354331
11
10.0574638582677167
21
-2.7721477165354331
0
LINE
8
BLACK
6
CONTINUOUS
10
10.0574638582677167
20
-2.1028563779527558
11
9.3488024409448816
21
-2.1028563779527558
0
LINE
8
BLACK
6
CONTINUOUS
10
10.0574638582677167
20
-2.7721477165354331
11
10.0574638582677167
21
-2.1028563779527558
0
LINE
8
BLACK
6
CONTINUOUS
10
12.5597426377952761
20
-3.6028576377952755
11
12.5597426377952761
21
-4.2721489763779523
0
LINE
8
BLACK
6
CONTINUOUS
10
12.5597426377952761
20
-4.2721489763779523
11
13.2684040551181095
21
-4.2721489763779523
0
LINE
8
BLACK
6
CONTINUOUS
10
13.2684040551181095
20
-3.6028576377952755
11
12.5597426377952761
21
-3.6028576377952755
0
LINE
8
BLACK
6
CONTINUOUS
10
13.2684040551181095
20
-4.2721489763779523
11
13.2684040551181095
21
-3.6028576377952755
0
LINE
8
BLACK
6
CONTINUOUS
10
8.5988018110236215
20
-2.1028563779527558
11
8.5988018110236215
21
-2.7721477165354331
0
LINE
8
BLACK
6
CONTINUOUS
10
8.5988018110236215
20
-2.7721477165354331
11
9.3074632283464567
21
-2.7721477165354331
0
LINE
8
BLACK
6
CONTINUOUS
10
9.3074632283464567
20
-2.1028563779527558
11
8.5988018110236215
21
-2.1028563779527558
0
LINE
8
BLACK
6
CONTINUOUS
10
9.3074632283464567
20
-2.7721477165354331
11
9.3074632283464567
21
-2.1028563779527558
0
LINE
8
BLACK
6
CONTINUOUS
10
10.4658680708661418
20
-2.8528570078740159
11
10.4658680708661418
21
-3.5221483464566927
0
LINE
8
BLACK
6
CONTINUOUS
10
10.4658680708661418
20
-3.5221483464566927
11
11.7060255511811029
21
-3.5221483464566927
0
LINE
8
BLACK
6
CONTINUOUS
10
11.7060255511811029
20
-2.8528570078740159
11
10.4658680708661418
21
-2.8528570078740159
0
LINE
8
BLACK
6
CONTINUOUS
10
11.7060255511811029
20
-3.5221483464566927
11
11.7060255511811029
21
-2.8528570078740159
0
LINE
8
BLACK
6
CONTINUOUS
10
10.0988030708661416
20
-2.1028563779527558
11
10.0988030708661416
21
-2.7721477165354331
0
LINE
8
BLACK
6
CONTINUOUS
10
10.0988030708661416
20
-2.7721477165354331
11
10.8074644881889768
21
-2.7721477165354331
0
LINE
8
BLACK
6
CONTINUOUS
10
10.8074644881889768
20
-2.1028563779527558
11
10.0988030708661416
21
-2.1028563779527558
0
LINE
8
BLACK
6
CONTINUOUS
10
10.8074644881889768
20
-2.7721477165354331
11
10.8074644881889768
21
-2.1028563779527558
0
LINE
8
BLACK
6
CONTINUOUS
10
4.8487986614173231
20
-2.1028563779527558
11
4.8487986614173231
21
-2.7721477165354331
0
LINE
8
BLACK
6
CONTINUOUS
10
4.8487986614173231
20
-2.7721477165354331
11
5.5574600787401573
21
-2.7721477165354331
0
LINE
8
BLACK
6
CONTINUOUS
10
5.5574600787401573
20
-2.1028563779527558
11
4.8487986614173231
21
-2.1028563779527558
0
LINE
8
BLACK
6
CONTINUOUS
10
5.5574600787401573
20
-2.7721477165354331
11
5.5574600787401573
21
-2.1028563779527558
0
LINE
8
BLACK
6
CONTINUOUS
10
8.0831692913385833
20
-0.6028543307086615
11
8.0831692913385833
21
-1.2721456692913387
0
LINE
8
BLACK
6
CONTINUOUS
10
8.0831692913385833
20
-1.2721456692913387
11
8.7918307086614167
21
-1.2721456692913387
0
LINE
8
BLACK
6
CONTINUOUS
10
8.7918307086614167
20
-0.6028543307086615
11
8.0831692913385833
21
-0.6028543307086615
0
LINE
8
BLACK
6
CONTINUOUS
10
8.7918307086614167
20
-1.2721456692913387
11
8.7918307086614167
21
-0.6028543307086615
0
LINE
8
BLACK
6
CONTINUOUS
10
4.098798031496063
20
-2.1028563779527558
11
4.098798031496063
21
-2.7721477165354331
0
LINE
8
BLACK
6
CONTINUOUS
10
4.098798031496063
20
-2.7721477165354331
11
4.8074594488188973
21
-2.7721477165354331
0
LINE
8
BLACK
6
CONTINUOUS
10
4.8074594488188973
20
-2.1028563779527558
11
4.098798031496063
21
-2.1028563779527558
0
LINE
8
BLACK
6
CONTINUOUS
10
4.8074594488188973
20
-2.7721477165354331
11
4.8074594488188973
21
-2.1028563779527558
0
LINE
8
BLACK
6
CONTINUOUS
10
4.3331692913385824
20
-0.6028543307086615
11
4.3331692913385824
21
-1.2721456692913387
0
LINE
8
BLACK
6
CONTINUOUS
10
4.3331692913385824
20
-1.2721456692913387
11
5.0418307086614176
21
-1.2721456692913387
0
LINE
8
BLACK
6
CONTINUOUS
10
5.0418307086614176
20
-0.6028543307086615
11
4.3331692913385824
21
-0.6028543307086615
0
LINE
8
BLACK
6
CONTINUOUS
10
5.0418307086614176
20
-1.2721456692913387
11
5.0418307086614176
21
-0.6028543307086615
0
LINE
8
BLACK
6
CONTINUOUS
10
5.5987992913385822
20
-2.1028563779527558
11
5.5987992913385822
21
-2.7721477165354331
0
LINE
8
BLACK
6
CONTINUOUS
10
5.5987992913385822
20
-2.7721477165354331
11
6.3074607086614174
21
-2.7721477165354331
0
LINE
8
BLACK
6
CONTINUOUS
10
6.3074607086614174
20
-2.1028563779527558
11
5.5987992913385822
21
-2.1028563779527558
0
LINE
8
BLACK
6
CONTINUOUS
10
6.3074607086614174
20
-2.7721477165354331
11
6.3074607086614174
21
-2.1028563779527558
0
LINE
8
BLACK
6
CONTINUOUS
10
9.9581692913385833
20
-1.3528543307086613
11
9.9581692913385833
21
-2.0221456692913384
0
LINE
8
BLACK
6
CONTINUOUS
10
9.9581692913385833
20
-2.0221456692913384
11
10.6668307086614167
21
-2.0221456692913384
0
LINE
8
BLACK
6
CONTINUOUS
10
10.6668307086614167
20
-1.3528543307086613
11
9.9581692913385833
21
-1.3528543307086613
0
LINE
8
BLACK
6
CONTINUOUS
10
10.6668307086614167
20
-2.0221456692913384
11
10.6668307086614167
21
-1.3528543307086613
0
LINE
8
BLACK
6
CONTINUOUS
10
0.5831700787401575
20
-2.8528570078740159
11
0.5831700787401575
21
-3.5221483464566927
0
LINE
8
BLACK
6
CONTINUOUS
10
0.5831700787401575
20
-3.5221483464566927
11
1.2918314960629922
21
-3.5221483464566927
0
LINE
8
BLACK
6
CONTINUOUS
10
1.2918314960629922
20
-2.8528570078740159
11
0.5831700787401575
21
-2.8528570078740159
0
LINE
8
BLACK
6
CONTINUOUS
10
1.2918314960629922
20
-3.5221483464566927
11
1.2918314960629922
21
-2.8528570078740159
0
LINE
8
BLACK
6
CONTINUOUS
10
11.4450764960629918
20
-1.352855748031496
11
11.4450764960629918
21
-2.0221470866141731
0
LINE
8
BLACK
6
CONTINUOUS
10
11.4450764960629918
20
-2.0221470866141731
11
12.5080686220472437
21
-2.0221470866141731
0
LINE
8
BLACK
6
CONTINUOUS
10
12.5080686220472437
20
-1.352855748031496
11
11.4450764960629918
21
-1.352855748031496
0
LINE
8
BLACK
6
CONTINUOUS
10
12.5080686220472437
20
-2.0221470866141731
11
12.5080686220472437
21
-1.352855748031496
0
LINE
8
BLACK
6
CONTINUOUS
10
4.207313464566929
20
-3.6028576377952755
11
4.207313464566929
21
-4.2721489763779523
0
LINE
8
BLACK
6
CONTINUOUS
10
4.207313464566929
20
-4.2721489763779523
11
8.6364473228346448
21
-4.2721489763779523
0
LINE
8
BLACK
6
CONTINUOUS
10
8.6364473228346448
20
-3.6028576377952755
11
4.207313464566929
21
-3.6028576377952755
0
LINE
8
BLACK
6
CONTINUOUS
10
8.6364473228346448
20
-4.2721489763779523
11
8.6364473228346448
21
-3.6028576377952755
0
LINE
8
BLACK
6
CONTINUOUS
10
11.0128663385826773
20
-3.6028576377952755
11
11.0128663385826773
21
-4.2721489763779523
0
LINE
8
BLACK
6
CONTINUOUS
10
11.0128663385826773
20
-4.2721489763779523
11
11.7215277559055107
21
-4.2721489763779523
0
LINE
8
BLACK
6
CONTINUOUS
10
11.7215277559055107
20
-3.6028576377952755
11
11.0128663385826773
21
-3.6028576377952755
0
LINE
8
BLACK
6
CONTINUOUS
10
11.7215277559055107
20
-4.2721489763779523
11
11.7215277559055107
21
-3.6028576377952755
0
LINE
8
BLACK
6
CONTINUOUS
10
6.5831692913385824
20
-0.6028543307086615
11
6.5831692913385824
21
-1.2721456692913387
0
LINE
8
BLACK
6
CONTINUOUS
10
6.5831692913385824
20
-1.2721456692913387
11
7.2918307086614176
21
-1.2721456692913387
0
LINE
8
BLACK
6
CONTINUOUS
10
7.2918307086614176
20
-0.6028543307086615
11
6.5831692913385824
21
-0.6028543307086615
0
LINE
8
BLACK
6
CONTINUOUS
10
7.2918307086614176
20
-1.2721456692913387
11
7.2918307086614176
21
-0.6028543307086615
0
LINE
8
BLACK
6
CONTINUOUS
10
1.3355701968503937
20
-2.8528570078740159
11
1.3355701968503937
21
-3.5221483464566927
0
LINE
8
BLACK
6
CONTINUOUS
10
1.3355701968503937
20
-3.5221483464566927
11
2.9300583858267717
21
-3.5221483464566927
0
LINE
8
BLACK
6
CONTINUOUS
10
2.9300583858267717
20
-2.8528570078740159
11
1.3355701968503937
21
-2.8528570078740159
0
LINE
8
BLACK
6
CONTINUOUS
10
2.9300583858267717
20
-3.5221483464566927
11
2.9300583858267717
21
-2.8528570078740159
0
LINE
8
BLACK
6
CONTINUOUS
10
6.9581692913385824
20
-1.3528543307086613
11
6.9581692913385824
21
-2.0221456692913384
0
LINE
8
BLACK
6
CONTINUOUS
10
6.9581692913385824
20
-2.0221456692913384
11
7.6668307086614176
21
-2.0221456692913384
0
LINE
8
BLACK
6
CONTINUOUS
10
7.6668307086614176
20
-1.3528543307086613
11
6.9581692913385824
21
-1.3528543307086613
0
LINE
8
BLACK
6
CONTINUOUS
10
7.6668307086614176
20
-2.0221456692913384
11
7.6668307086614176
21
-1.3528543307086613
0
LINE
8
BLACK
6
CONTINUOUS
10
10.874640708661417
20
-2.1028563779527558
11
10.874640708661417
21
-2.7721477165354331
0
LINE
8
BLACK
6
CONTINUOUS
10
10.874640708661417
20
-2.7721477165354331
11
12.4691288976377948
21
-2.7721477165354331
0
LINE
8
BLACK
6
CONTINUOUS
10
12.4691288976377948
20
-2.1028563779527558
11
10.874640708661417
21
-2.1028563779527558
0
LINE
8
BLACK
6
CONTINUOUS
10
12.4691288976377948
20
-2.7721477165354331
11
12.4691288976377948
21
-2.1028563779527558
0
LINE
8
BLACK
6
CONTINUOUS
10
8.2238014960629915
20
-2.8528570078740159
11
8.2238014960629915
21
-3.5221483464566927
0
LINE
8
BLACK
6
CONTINUOUS
10
8.2238014960629915
20
-3.5221483464566927
11
8.9324629133858267
21
-3.5221483464566927
0
LINE
8
BLACK
6
CONTINUOUS
10
8.9324629133858267
20
-2.8528570078740159
11
8.2238014960629915
21
-2.8528570078740159
0
LINE
8
BLACK
6
CONTINUOUS
10
8.9324629133858267
20
-3.5221483464566927
11
8.9324629133858267
21
-2.8528570078740159
0
LINE
8
BLACK
6
CONTINUOUS
10
5.0831692913385824
20
-0.6028543307086615
11
5.0831692913385824
21
-1.2721456692913387
0
LINE
8
BLACK
6
CONTINUOUS
10
5.0831692913385824
20
-1.2721456692913387
11
5.7918307086614176
21
-1.2721456692913387
0
LINE
8
BLACK
6
CONTINUOUS
10
5.7918307086614176
20
-0.6028543307086615
11
5.0831692913385824
21
-0.6028543307086615
0
LINE
8
BLACK
6
CONTINUOUS
10
5.7918307086614176
20
-1.2721456692913387
11
5.7918307086614176
21
-0.6028543307086615
0
LINE
8
BLACK
6
CONTINUOUS
10
12.5597426377952761
20
-2.8528570078740159
11
12.5597426377952761
21
-3.5221483464566927
0
LINE
8
BLACK
6
CONTINUOUS
10
12.5597426377952761
20
-3.5221483464566927
11
13.2684040551181095
21
-3.5221483464566927
0
LINE
8
BLACK
6
CONTINUOUS
10
13.2684040551181095
20
-2.8528570078740159
11
12.5597426377952761
21
-2.8528570078740159
0
LINE
8
BLACK
6
CONTINUOUS
10
13.2684040551181095
20
-3.5221483464566927
11
13.2684040551181095
21
-2.8528570078740159
0
LINE
8
BLACK
6
CONTINUOUS
10
10.7081692913385833
20
-1.3528543307086613
11
10.7081692913385833
21
-2.0221456692913384
0
LINE
8
BLACK
6
CONTINUOUS
10
10.7081692913385833
20
-2.0221456692913384
11
11.4168307086614167
21
-2.0221456692913384
0
LINE
8
BLACK
6
CONTINUOUS
10
11.4168307086614167
20
-1.3528543307086613
11
10.7081692913385833
21
-1.3528543307086613
0
LINE
8
BLACK
6
CONTINUOUS
10
11.4168307086614167
20
-2.0221456692913384
11
11.4168307086614167
21
-1.3528543307086613
0
LINE
8
BLACK
6
CONTINUOUS
10
9.7238027559055116
20
-2.8528570078740159
11
9.7238027559055116
21
-3.5221483464566927
0
LINE
8
BLACK
6
CONTINUOUS
10
9.7238027559055116
20
-3.5221483464566927
11
10.4324641732283467
21
-3.5221483464566927
0
LINE
8
BLACK
6
CONTINUOUS
10
10.4324641732283467
20
-2.8528570078740159
11
9.7238027559055116
21
-2.8528570078740159
0
LINE
8
BLACK
6
CONTINUOUS
10
10.4324641732283467
20
-3.5221483464566927
11
10.4324641732283467
21
-2.8528570078740159
0
LINE
8
BLACK
6
CONTINUOUS
10
2.0831692913385824
20
-0.6028551181102362
11
2.0831692913385824
21
-1.2721464566929133
0
LINE
8
BLACK
6
CONTINUOUS
10
2.0831692913385824
20
-1.2721464566929133
11
2.7918307086614171
21
-1.2721464566929133
0
LINE
8
BLACK
6
CONTINUOUS
10
2.7918307086614171
20
-0.6028551181102362
11
2.0831692913385824
21
-0.6028551181102362
0
LINE
8
BLACK
6
CONTINUOUS
10
2.7918307086614171
20
-1.2721464566929133
11
2.7918307086614171
21
-0.6028551181102362
0
LINE
8
BLACK
6
CONTINUOUS
10
4.6959928346456694
20
-1.3528543307086613
11
4.6959928346456694
21
-2.0221456692913384
0
LINE
8
BLACK
6
CONTINUOUS
10
4.6959928346456694
20
-2.0221456692913384
11
5.4046542519685037
21
-2.0221456692913384
0
LINE
8
BLACK
6
CONTINUOUS
10
5.4046542519685037
20
-1.3528543307086613
11
4.6959928346456694
21
-1.3528543307086613
0
LINE
8
BLACK
6
CONTINUOUS
10
5.4046542519685037
20
-2.0221456692913384
11
5.4046542519685037
21
-1.3528543307086613
0
LINE
8
BLACK
6
CONTINUOUS
10
11.7628669685039373
20
-2.8528570078740159
11
11.7628669685039373
21
-3.5221483464566927
0
LINE
8
BLACK
6
CONTINUOUS
10
11.7628669685039373
20
-3.5221483464566927
11
12.4715283858267707
21
-3.5221483464566927
0
LINE
8
BLACK
6
CONTINUOUS
10
12.4715283858267707
20
-2.8528570078740159
11
11.7628669685039373
21
-2.8528570078740159
0
LINE
8
BLACK
6
CONTINUOUS
10
12.4715283858267707
20
-3.5221483464566927
11
12.4715283858267707
21
-2.8528570078740159
0
LINE
8
BLACK
6
CONTINUOUS
10
2.5987967716535434
20
-2.1028543307086616
11
2.5987967716535434
21
-2.7721456692913384
0
LINE
8
BLACK
6
CONTINUOUS
10
2.5987967716535434
20
-2.7721456692913384
11
3.3074581889763777
21
-2.7721456692913384
0
LINE
8
BLACK
6
CONTINUOUS
10
3.3074581889763777
20
-2.1028543307086616
11
2.5987967716535434
21
-2.1028543307086616
0
LINE
8
BLACK
6
CONTINUOUS
10
3.3074581889763777
20
-2.7721456692913384
11
3.3074581889763777
21
-2.1028543307086616
0
LINE
8
BLACK
6
CONTINUOUS
10
10.3331692913385833
20
-0.6028543307086615
11
10.3331692913385833
21
-1.2721456692913387
0
LINE
8
BLACK
6
CONTINUOUS
10
10.3331692913385833
20
-1.2721456692913387
11
11.0418307086614167
21
-1.2721456692913387
0
LINE
8
BLACK
6
CONTINUOUS
10
11.0418307086614167
20
-0.6028543307086615
11
10.3331692913385833
21
-0.6028543307086615
0
LINE
8
BLACK
6
CONTINUOUS
10
11.0418307086614167
20
-1.2721456692913387
11
11.0418307086614167
21
-0.6028543307086615
0
LINE
8
BLACK
6
CONTINUOUS
10
7.7081692913385824
20
-1.3528543307086613
11
7.7081692913385824
21
-2.0221456692913384
0
LINE
8
BLACK
6
CONTINUOUS
10
7.7081692913385824
20
-2.0221456692913384
11
8.4168307086614167
21
-2.0221456692913384
0
LINE
8
BLACK
6
CONTINUOUS
10
8.4168307086614167
20
-1.3528543307086613
11
7.7081692913385824
21
-1.3528543307086613
0
LINE
8
BLACK
6
CONTINUOUS
10
8.4168307086614167
20
-2.0221456692913384
11
8.4168307086614167
21
-1.3528543307086613
0
LINE
8
BLACK
6
CONTINUOUS
10
9.5128650787401572
20
-3.6028576377952755
11
9.5128650787401572
21
-4.2721489763779523
0
LINE
8
BLACK
6
CONTINUOUS
10
9.5128650787401572
20
-4.2721489763779523
11
10.2215264960629924
21
-4.2721489763779523
0
LINE
8
BLACK
6
CONTINUOUS
10
10.2215264960629924
20
-3.6028576377952755
11
9.5128650787401572
21
-3.6028576377952755
0
LINE
8
BLACK
6
CONTINUOUS
10
10.2215264960629924
20
-4.2721489763779523
11
10.2215264960629924
21
-3.6028576377952755
0
CIRCLE
8
BLACK
10
13.6490394094488181
20
-0.6873048818897638
40
0.0413385826771654
0
CIRCLE
8
BLACK
10
13.6490394094488181
20
-2.5376985826771654
40
0.0413385826771654
0
CIRCLE
8
BLACK
10
14.0978583070866144
20
-0.6873048818897638
40
0.0413385826771654
0
CIRCLE
8
BLACK
10
14.0978583070866144
20
-2.5376985826771654
40
0.0413385826771654
0
LINE
8
BLACK
6
CONTINUOUS
10
8.9738021259842515
20
-2.8528570078740159
11
8.9738021259842515
21
-3.5221483464566927
0
LINE
8
BLACK
6
CONTINUOUS
10
8.9738021259842515
20
-3.5221483464566927
11
9.6824635433070867
21
-3.5221483464566927
0
LINE
8
BLACK
6
CONTINUOUS
10
9.6824635433070867
20
-2.8528570078740159
11
8.9738021259842515
21
-2.8528570078740159
0
LINE
8
BLACK
6
CONTINUOUS
10
9.6824635433070867
20
-3.5221483464566927
11
9.6824635433070867
21
-2.8528570078740159
0
LINE
8
BLACK
6
CONTINUOUS
10
11.1038385826771648
20
-0.6028543307086615
11
11.1038385826771648
21
-1.2721456692913387
0
LINE
8
BLACK
6
CONTINUOUS
10
11.1038385826771648
20
-1.2721456692913387
11
12.5211614173228352
21
-1.2721456692913387
0
LINE
8
BLACK
6
CONTINUOUS
10
12.5211614173228352
20
-0.6028543307086615
11
11.1038385826771648
21
-0.6028543307086615
0
LINE
8
BLACK
6
CONTINUOUS
10
12.5211614173228352
20
-1.2721456692913387
11
12.5211614173228352
21
-0.6028543307086615
0
LINE
8
BLACK
6
CONTINUOUS
10
0.5831700787401575
20
-3.6028576377952755
11
0.5831700787401575
21
-4.2721489763779523
0
LINE
8
BLACK
6
CONTINUOUS
10
0.5831700787401575
20
-4.2721489763779523
11
1.2918314960629922
21
-4.2721489763779523
0
LINE
8
BLACK
6
CONTINUOUS
10
1.2918314960629922
20
-3.6028576377952755
11
0.5831700787401575
21
-3.6028576377952755
0
LINE
8
BLACK
6
CONTINUOUS
10
1.2918314960629922
20
-4.2721489763779523
11
1.2918314960629922
21
-3.6028576377952755
0
LINE
8
BLACK
6
CONTINUOUS
10
6.2081692913385824
20
-1.3528543307086613
11
6.2081692913385824
21
-2.0221456692913384
0
LINE
8
BLACK
6
CONTINUOUS
10
6.2081692913385824
20
-2.0221456692913384
11
6.9168307086614176
21
-2.0221456692913384
0
LINE
8
BLACK
6
CONTINUOUS
10
6.9168307086614176
20
-1.3528543307086613
11
6.2081692913385824
21
-1.3528543307086613
0
LINE
8
BLACK
6
CONTINUOUS
10
6.9168307086614176
20
-2.0221456692913384
11
6.9168307086614176
21
-1.3528543307086613
0
LINE
8
BLACK
6
CONTINUOUS
10
2.973797086614173
20
-2.8528570078740159
11
2.973797086614173
21
-3.5221483464566927
0
LINE
8
BLACK
6
CONTINUOUS
10
2.973797086614173
20
-3.5221483464566927
11
3.6824585039370077
21
-3.5221483464566927
0
LINE
8
BLACK
6
CONTINUOUS
10
3.6824585039370077
20
-2.8528570078740159
11
2.973797086614173
21
-2.8528570078740159
0
LINE
8
BLACK
6
CONTINUOUS
10
3.6824585039370077
20
-3.5221483464566927
11
3.6824585039370077
21
-2.8528570078740159
0
LINE
8
BLACK
6
CONTINUOUS
10
7.3331692913385824
20
-0.6028543307086615
11
7.3331692913385824
21
-1.2721456692913387
0
LINE
8
BLACK
6
CONTINUOUS
10
7.3331692913385824
20
-1.2721456692913387
11
8.0418307086614167
21
-1.2721456692913387
0
LINE
8
BLACK
6
CONTINUOUS
10
8.0418307086614167
20
-0.6028543307086615
11
7.3331692913385824
21
-0.6028543307086615
0
LINE
8
BLACK
6
CONTINUOUS
10
8.0418307086614167
20
-1.2721456692913387
11
8.0418307086614167
21
-0.6028543307086615
0
LINE
8
BLACK
6
CONTINUOUS
10
2.4581692913385824
20
-1.3528543307086613
11
2.4581692913385824
21
-2.0221456692913384
0
LINE
8
BLACK
6
CONTINUOUS
10
2.4581692913385824
20
-2.0221456692913384
11
3.1668307086614171
21
-2.0221456692913384
0
LINE
8
BLACK
6
CONTINUOUS
10
3.1668307086614171
20
-1.3528543307086613
11
2.4581692913385824
21
-1.3528543307086613
0
LINE
8
BLACK
6
CONTINUOUS
10
3.1668307086614171
20
-2.0221456692913384
11
3.1668307086614171
21
-1.3528543307086613
0
LINE
8
BLACK
6
CONTINUOUS
10
4.4737983464566931
20
-2.8528570078740159
11
4.4737983464566931
21
-3.5221483464566927
0
LINE
8
BLACK
6
CONTINUOUS
10
4.4737983464566931
20
-3.5221483464566927
11
5.1824597637795273
21
-3.5221483464566927
0
LINE
8
BLACK
6
CONTINUOUS
10
5.1824597637795273
20
-2.8528570078740159
11
4.4737983464566931
21
-2.8528570078740159
0
LINE
8
BLACK
6
CONTINUOUS
10
5.1824597637795273
20
-3.5221483464566927
11
5.1824597637795273
21
-2.8528570078740159
0
LINE
8
BLACK
6
CONTINUOUS
10
2.275838897637795
20
-3.6028576377952755
11
2.275838897637795
21
-4.2721489763779523
0
LINE
8
BLACK
6
CONTINUOUS
10
2.275838897637795
20
-4.2721489763779523
11
3.1616656692913385
21
-4.2721489763779523
0
LINE
8
BLACK
6
CONTINUOUS
10
3.1616656692913385
20
-3.6028576377952755
11
2.275838897637795
21
-3.6028576377952755
0
LINE
8
BLACK
6
CONTINUOUS
10
3.1616656692913385
20
-4.2721489763779523
11
3.1616656692913385
21
-3.6028576377952755
0
LINE
8
BLACK
6
CONTINUOUS
10
1.3331707086614173
20
-0.6028551181102362
11
1.3331707086614173
21
-1.2721464566929133
0
LINE
8
BLACK
6
CONTINUOUS
10
1.3331707086614173
20
-1.2721464566929133
11
2.0418321259842518
21
-1.2721464566929133
0
LINE
8
BLACK
6
CONTINUOUS
10
2.0418321259842518
20
-0.6028551181102362
11
1.3331707086614173
21
-0.6028551181102362
0
LINE
8
BLACK
6
CONTINUOUS
10
2.0418321259842518
20
-1.2721464566929133
11
2.0418321259842518
21
-0.6028551181102362
0
LINE
8
BLACK
6
CONTINUOUS
10
7.0988005511811023
20
-2.1028563779527558
11
7.0988005511811023
21
-2.7721477165354331
0
LINE
8
BLACK
6
CONTINUOUS
10
7.0988005511811023
20
-2.7721477165354331
11
7.8074619685039366
21
-2.7721477165354331
0
LINE
8
BLACK
6
CONTINUOUS
10
7.8074619685039366
20
-2.1028563779527558
11
7.0988005511811023
21
-2.1028563779527558
0
LINE
8
BLACK
6
CONTINUOUS
10
7.8074619685039366
20
-2.7721477165354331
11
7.8074619685039366
21
-2.1028563779527558
0
LINE
8
BLACK
6
CONTINUOUS
10
12.5597426377952761
20
-2.1028563779527558
11
12.5597426377952761
21
-2.7721477165354331
0
LINE
8
BLACK
6
CONTINUOUS
10
12.5597426377952761
20
-2.7721477165354331
11
13.2684040551181095
21
-2.7721477165354331
0
LINE
8
BLACK
6
CONTINUOUS
10
13.2684040551181095
20
-2.1028563779527558
11
12.5597426377952761
21
-2.1028563779527558
0
LINE
8
BLACK
6
CONTINUOUS
10
13.2684040551181095
20
-2.7721477165354331
11
13.2684040551181095
21
-2.1028563779527558
0
LINE
8
BLACK
6
CONTINUOUS
10
10.2628657086614172
20
-3.6028576377952755
11
10.2628657086614172
21
-4.2721489763779523
0
LINE
8
BLACK
6
CONTINUOUS
10
10.2628657086614172
20
-4.2721489763779523
11
10.9715271259842524
21
-4.2721489763779523
0
LINE
8
BLACK
6
CONTINUOUS
10
10.9715271259842524
20
-3.6028576377952755
11
10.2628657086614172
21
-3.6028576377952755
0
LINE
8
BLACK
6
CONTINUOUS
10
10.9715271259842524
20
-4.2721489763779523
11
10.9715271259842524
21
-3.6028576377952755
0
LINE
8
BLACK
6
CONTINUOUS
10
8.7628644488188971
20
-3.6028576377952755
11
8.7628644488188971
21
-4.2721489763779523
0
LINE
8
BLACK
6
CONTINUOUS
10
8.7628644488188971
20
-4.2721489763779523
11
9.4715258661417323
21
-4.2721489763779523
0
LINE
8
BLACK
6
CONTINUOUS
10
9.4715258661417323
20
-3.6028576377952755
11
8.7628644488188971
21
-3.6028576377952755
0
LINE
8
BLACK
6
CONTINUOUS
10
9.4715258661417323
20
-4.2721489763779523
11
9.4715258661417323
21
-3.6028576377952755
0
LINE
8
BLACK
6
CONTINUOUS
10
9.5831692913385833
20
-0.6028543307086615
11
9.5831692913385833
21
-1.2721456692913387
0
LINE
8
BLACK
6
CONTINUOUS
10
9.5831692913385833
20
-1.2721456692913387
11
10.2918307086614167
21
-1.2721456692913387
0
LINE
8
BLACK
6
CONTINUOUS
10
10.2918307086614167
20
-0.6028543307086615
11
9.5831692913385833
21
-0.6028543307086615
0
LINE
8
BLACK
6
CONTINUOUS
10
10.2918307086614167
20
-1.2721456692913387
11
10.2918307086614167
21
-0.6028543307086615
0
LINE
8
BLACK
6
CONTINUOUS
10
9.2081692913385833
20
-1.3528543307086613
11
9.2081692913385833
21
-2.0221456692913384
0
LINE
8
BLACK
6
CONTINUOUS
10
9.2081692913385833
20
-2.0221456692913384
11
9.9168307086614167
21
-2.0221456692913384
0
LINE
8
BLACK
6
CONTINUOUS
10
9.9168307086614167
20
-1.3528543307086613
11
9.2081692913385833
21
-1.3528543307086613
0
LINE
8
BLACK
6
CONTINUOUS
10
9.9168307086614167
20
-2.0221456692913384
11
9.9168307086614167
21
-1.3528543307086613
0
LINE
8
BLACK
6
CONTINUOUS
10
5.8331692913385824
20
-0.6028543307086615
11
5.8331692913385824
21
-1.2721456692913387
0
LINE
8
BLACK
6
CONTINUOUS
10
5.8331692913385824
20
-1.2721456692913387
11
6.5418307086614176
21
-1.2721456692913387
0
LINE
8
BLACK
6
CONTINUOUS
10
6.5418307086614176
20
-0.6028543307086615
11
5.8331692913385824
21
-0.6028543307086615
0
LINE
8
BLACK
6
CONTINUOUS
10
6.5418307086614176
20
-1.2721456692913387
11
6.5418307086614176
21
-0.6028543307086615
0
LINE
8
BLACK
6
CONTINUOUS
10
2.8331692913385824
20
-0.6028551181102362
11
2.8331692913385824
21
-1.2721464566929133
0
LINE
8
BLACK
6
CONTINUOUS
10
2.8331692913385824
20
-1.2721464566929133
11
3.5418307086614171
21
-1.2721464566929133
0
LINE
8
BLACK
6
CONTINUOUS
10
3.5418307086614171
20
-0.6028551181102362
11
2.8331692913385824
21
-0.6028551181102362
0
LINE
8
BLACK
6
CONTINUOUS
10
3.5418307086614171
20
-1.2721464566929133
11
3.5418307086614171
21
-0.6028551181102362
0
LINE
8
BLACK
6
CONTINUOUS
10
5.9737996062992123
20
-2.8528570078740159
11
5.9737996062992123
21
-3.5221483464566927
0
LINE
8
BLACK
6
CONTINUOUS
10
5.9737996062992123
20
-3.5221483464566927
11
6.6824610236220474
21
-3.5221483464566927
0
LINE
8
BLACK
6
CONTINUOUS
10
6.6824610236220474
20
-2.8528570078740159
11
5.9737996062992123
21
-2.8528570078740159
0
LINE
8
BLACK
6
CONTINUOUS
10
6.6824610236220474
20
-3.5221483464566927
11
6.6824610236220474
21
-2.8528570078740159
0
LINE
8
BLACK
6
CONTINUOUS
10
3.348797401574803
20
-2.1028543307086616
11
3.348797401574803
21
-2.7721456692913384
0
LINE
8
BLACK
6
CONTINUOUS
10
3.348797401574803
20
-2.7721456692913384
11
4.0574588188976373
21
-2.7721456692913384
0
LINE
8
BLACK
6
CONTINUOUS
10
4.0574588188976373
20
-2.1028543307086616
11
3.348797401574803
21
-2.1028543307086616
0
LINE
8
BLACK
6
CONTINUOUS
10
4.0574588188976373
20
-2.7721456692913384
11
4.0574588188976373
21
-2.1028543307086616
0
LINE
8
BLACK
6
CONTINUOUS
10
8.4581692913385833
20
-1.3528543307086613
11
8.4581692913385833
21
-2.0221456692913384
0
LINE
8
BLACK
6
CONTINUOUS
10
8.4581692913385833
20
-2.0221456692913384
11
9.1668307086614167
21
-2.0221456692913384
0
LINE
8
BLACK
6
CONTINUOUS
10
9.1668307086614167
20
-1.3528543307086613
11
8.4581692913385833
21
-1.3528543307086613
0
LINE
8
BLACK
6
CONTINUOUS
10
9.1668307086614167
20
-2.0221456692913384
11
9.1668307086614167
21
-1.3528543307086613
0
LINE
8
BLACK
6
CONTINUOUS
10
7.4738008661417323
20
-2.8528570078740159
11
7.4738008661417323
21
-3.5221483464566927
0
LINE
8
BLACK
6
CONTINUOUS
10
7.4738008661417323
20
-3.5221483464566927
11
8.1824622834645666
21
-3.5221483464566927
0
LINE
8
BLACK
6
CONTINUOUS
10
8.1824622834645666
20
-2.8528570078740159
11
7.4738008661417323
21
-2.8528570078740159
0
LINE
8
BLACK
6
CONTINUOUS
10
8.1824622834645666
20
-3.5221483464566927
11
8.1824622834645666
21
-2.8528570078740159
0
LINE
8
BLACK
6
CONTINUOUS
10
5.4581692913385824
20
-1.3528543307086613
11
5.4581692913385824
21
-2.0221456692913384
0
LINE
8
BLACK
6
CONTINUOUS
10
5.4581692913385824
20
-2.0221456692913384
11
6.1668307086614176
21
-2.0221456692913384
0
LINE
8
BLACK
6
CONTINUOUS
10
6.1668307086614176
20
-1.3528543307086613
11
5.4581692913385824
21
-1.3528543307086613
0
LINE
8
BLACK
6
CONTINUOUS
10
6.1668307086614176
20
-2.0221456692913384
11
6.1668307086614176
21
-1.3528543307086613
0
LINE
8
BLACK
6
CONTINUOUS
10
3.2081692913385824
20
-1.3528543307086613
11
3.2081692913385824
21
-2.0221456692913384
0
LINE
8
BLACK
6
CONTINUOUS
10
3.2081692913385824
20
-2.0221456692913384
11
3.9168307086614171
21
-2.0221456692913384
0
LINE
8
BLACK
6
CONTINUOUS
10
3.9168307086614171
20
-1.3528543307086613
11
3.2081692913385824
21
-1.3528543307086613
0
LINE
8
BLACK
6
CONTINUOUS
10
3.9168307086614171
20
-2.0221456692913384
11
3.9168307086614171
21
-1.3528543307086613
0
LINE
8
BLACK
6
CONTINUOUS
10
1.3275729527559055
20
-1.3528543307086613
11
1.3275729527559055
21
-2.0221456692913384
0
LINE
8
BLACK
6
CONTINUOUS
10
1.3275729527559055
20
-2.0221456692913384
11
2.3905650787401576
21
-2.0221456692913384
0
LINE
8
BLACK
6
CONTINUOUS
10
2.3905650787401576
20
-1.3528543307086613
11
1.3275729527559055
21
-1.3528543307086613
0
LINE
8
BLACK
6
CONTINUOUS
10
2.3905650787401576
20
-2.0221456692913384
11
2.3905650787401576
21
-1.3528543307086613
0
LINE
8
BLACK
6
CONTINUOUS
10
12.5541338582677167
20
-1.3528543307086613
11
12.5541338582677167
21
-2.0221456692913384
0
LINE
8
BLACK
6
CONTINUOUS
10
12.5541338582677167
20
-2.0221456692913384
11
13.26279527559055
21
-2.0221456692913384
0
LINE
8
BLACK
6
CONTINUOUS
10
13.26279527559055
20
-1.3528543307086613
11
12.5541338582677167
21
-1.3528543307086613
0
LINE
8
BLACK
6
CONTINUOUS
10
13.26279527559055
20
-2.0221456692913384
11
13.26279527559055
21
-1.3528543307086613
0
LINE
8
BLACK
6
CONTINUOUS
10
0.5831700787401575
20
-2.1028563779527558
11
0.5831700787401575
21
-2.7721477165354331
0
LINE
8
BLACK
6
CONTINUOUS
10
0.5831700787401575
20
-2.7721477165354331
11
1.2918314960629922
21
-2.7721477165354331
0
LINE
8
BLACK
6
CONTINUOUS
10
1.2918314960629922
20
-2.1028563779527558
11
0.5831700787401575
21
-2.1028563779527558
0
LINE
8
BLACK
6
CONTINUOUS
10
1.2918314960629922
20
-2.7721477165354331
11
1.2918314960629922
21
-2.1028563779527558
0
LINE
8
BLACK
6
CONTINUOUS
10
7.8488011811023624
20
-2.1028563779527558
11
7.8488011811023624
21
-2.7721477165354331
0
LINE
8
BLACK
6
CONTINUOUS
10
7.8488011811023624
20
-2.7721477165354331
11
8.5574625984251966
21
-2.7721477165354331
0
LINE
8
BLACK
6
CONTINUOUS
10
8.5574625984251966
20
-2.1028563779527558
11
7.8488011811023624
21
-2.1028563779527558
0
LINE
8
BLACK
6
CONTINUOUS
10
8.5574625984251966
20
-2.7721477165354331
11
8.5574625984251966
21
-2.1028563779527558
0
LINE
8
BLACK
6
CONTINUOUS
10
6.3487999212598423
20
-2.1028563779527558
11
6.3487999212598423
21
-2.7721477165354331
0
LINE
8
BLACK
6
CONTINUOUS
10
6.3487999212598423
20
-2.7721477165354331
11
7.0574613385826774
21
-2.7721477165354331
0
LINE
8
BLACK
6
CONTINUOUS
10
7.0574613385826774
20
-2.1028563779527558
11
6.3487999212598423
21
-2.1028563779527558
0
LINE
8
BLACK
6
CONTINUOUS
10
7.0574613385826774
20
-2.7721477165354331
11
7.0574613385826774
21
-2.1028563779527558
0
LINE
8
BLACK
6
CONTINUOUS
10
6.7238002362204723
20
-2.8528570078740159
11
6.7238002362204723
21
-3.5221483464566927
0
LINE
8
BLACK
6
CONTINUOUS
10
6.7238002362204723
20
-3.5221483464566927
11
7.4324616535433066
21
-3.5221483464566927
0
LINE
8
BLACK
6
CONTINUOUS
10
7.4324616535433066
20
-2.8528570078740159
11
6.7238002362204723
21
-2.8528570078740159
0
LINE
8
BLACK
6
CONTINUOUS
10
7.4324616535433066
20
-3.5221483464566927
11
7.4324616535433066
21
-2.8528570078740159
0
LINE
8
BLACK
6
CONTINUOUS
10
12.5541338582677167
20
-0.6028543307086615
11
12.5541338582677167
21
-1.2721456692913387
0
LINE
8
BLACK
6
CONTINUOUS
10
12.5541338582677167
20
-1.2721456692913387
11
13.26279527559055
21
-1.2721456692913387
0
LINE
8
BLACK
6
CONTINUOUS
10
13.26279527559055
20
-0.6028543307086615
11
12.5541338582677167
21
-0.6028543307086615
0
LINE
8
BLACK
6
CONTINUOUS
10
13.26279527559055
20
-1.2721456692913387
11
13.26279527559055
21
-0.6028543307086615
0
LINE
8
BLACK
6
CONTINUOUS
10
8.8331692913385833
20
-0.6028543307086615
11
8.8331692913385833
21
-1.2721456692913387
0
LINE
8
BLACK
6
CONTINUOUS
10
8.8331692913385833
20
-1.2721456692913387
11
9.5418307086614167
21
-1.2721456692913387
0
LINE
8
BLACK
6
CONTINUOUS
10
9.5418307086614167
20
-0.6028543307086615
11
8.8331692913385833
21
-0.6028543307086615
0
LINE
8
BLACK
6
CONTINUOUS
10
9.5418307086614167
20
-1.2721456692913387
11
9.5418307086614167
21
-0.6028543307086615
0
LINE
8
BLACK
6
CONTINUOUS
10
3.9581692913385824
20
-1.3528543307086613
11
3.9581692913385824
21
-2.0221456692913384
0
LINE
8
BLACK
6
CONTINUOUS
10
3.9581692913385824
20
-2.0221456692913384
11
4.6668307086614176
21
-2.0221456692913384
0
LINE
8
BLACK
6
CONTINUOUS
10
4.6668307086614176
20
-1.3528543307086613
11
3.9581692913385824
21
-1.3528543307086613
0
LINE
8
BLACK
6
CONTINUOUS
10
4.6668307086614176
20
-2.0221456692913384
11
4.6668307086614176
21
-1.3528543307086613
0
LINE
8
BLACK
6
CONTINUOUS
10
0.5831692913385826
20
-1.3528543307086613
11
0.5831692913385826
21
-2.0221456692913384
0
LINE
8
BLACK
6
CONTINUOUS
10
0.5831692913385826
20
-2.0221456692913384
11
1.2918307086614174
21
-2.0221456692913384
0
LINE
8
BLACK
6
CONTINUOUS
10
1.2918307086614174
20
-1.3528543307086613
11
0.5831692913385826
21
-1.3528543307086613
0
LINE
8
BLACK
6
CONTINUOUS
10
1.2918307086614174
20
-2.0221456692913384
11
1.2918307086614174
21
-1.3528543307086613
0
LINE
8
BLACK
6
CONTINUOUS
10
11.7628669685039373
20
-3.6028576377952755
11
11.7628669685039373
21
-4.2721489763779523
0
LINE
8
BLACK
6
CONTINUOUS
10
11.7628669685039373
20
-4.2721489763779523
11
12.4715283858267707
21
-4.2721489763779523
0
LINE
8
BLACK
6
CONTINUOUS
10
12.4715283858267707
20
-3.6028576377952755
11
11.7628669685039373
21
-3.6028576377952755
0
LINE
8
BLACK
6
CONTINUOUS
10
12.4715283858267707
20
-4.2721489763779523
11
12.4715283858267707
21
-3.6028576377952755
0
LINE
8
BLACK
6
CONTINUOUS
10
1.3252353937007875
20
-2.1028543307086616
11
1.3252353937007875
21
-2.7721456692913384
0
LINE
8
BLACK
6
CONTINUOUS
10
1.3252353937007875
20
-2.7721456692913384
11
2.5653928740157479
21
-2.7721456692913384
0
LINE
8
BLACK
6
CONTINUOUS
10
2.5653928740157479
20
-2.1028543307086616
11
1.3252353937007875
21
-2.1028543307086616
0
LINE
8
BLACK
6
CONTINUOUS
10
2.5653928740157479
20
-2.7721456692913384
11
2.5653928740157479
21
-2.1028543307086616
  0
ENDSEC
  0
EOF
